<svg width="1510" height="403" viewBox="0 0 1510 403" fill="none" xmlns="http://www.w3.org/2000/svg">
<path d="M0 8.38611L216.433 0L431.189 134.178L647.622 88.8928L862.378 6.70889L1078.81 90.57L1293.57 62.0572L1510 98.9561V402.533H1293.57H1078.81H862.378H647.622H431.189H216.433H0V8.38611Z" fill="#E6E6E9"/>
<path d="M0 191.203L216.433 129.146L431.189 169.399L647.622 83.8611L862.378 187.849L1078.81 110.697L1293.57 112.374L1510 155.982V402.533H1293.57H1078.81H862.378H647.622H431.189H216.433H0V191.203Z" fill="#ABAABC"/>
<path d="M0 139.209L216.433 164.368L431.189 231.456L647.622 216.361L862.378 162.69L1078.81 191.203L1293.57 184.494L1510 248.229V402.533H1293.57H1078.81H862.378H647.622H431.189H216.433H0V139.209Z" fill="#757290"/>
<path d="M0 261.647L216.433 293.514L431.189 275.065L647.622 288.482L862.378 226.425L1078.81 249.906L1293.57 286.805L1510 211.33V402.533H1293.57H1078.81H862.378H647.622H431.189H216.433H0V261.647Z" fill="#423E65"/>
<path d="M0 323.704L216.433 332.09L431.189 308.609L647.622 275.064L862.378 337.122L1078.81 348.862L1293.57 318.672L1510 313.641V402.533H1293.57H1078.81H862.378H647.622H431.189H216.433H0V323.704Z" fill="#100F3C"/>
</svg>
