<svg width="1510" height="226" viewBox="0 0 1510 226" fill="none" xmlns="http://www.w3.org/2000/svg">
<path d="M0 133.639L50.3333 161.701C100.667 190.291 201.333 245.625 302 217.958C402.667 190.29 503.333 76.9865 604 63.4164C704.667 49.3193 805.333 133.639 906 154.718C1006.67 175.798 1107.33 133.639 1208 133.639C1308.67 133.639 1409.33 175.798 1459.67 196.878L1510 217.958V-35H1459.67C1409.33 -35 1308.67 -35 1208 -35C1107.33 -35 1006.67 -35 906 -35C805.333 -35 704.667 -35 604 -35C503.333 -35 402.667 -35 302 -35C201.333 -35 100.667 -35 50.3333 -35H0V133.639Z" fill="#100F3C"/>
</svg>
